<?xml version="1.0" encoding="utf-8"?>
<!-- Generator: Adobe Illustrator 25.0.1, SVG Export Plug-In . SVG Version: 6.00 Build 0)  -->
<svg version="1.1" id="katman_1" xmlns="http://www.w3.org/2000/svg" xmlns:xlink="http://www.w3.org/1999/xlink" x="0px" y="0px"
	 viewBox="0 0 400 300" style="enable-background:new 0 0 400 300;" xml:space="preserve">
<style type="text/css">
	.st0{fill:#0D6EFD;}
</style>
<g id="_x23_fff8edff">
</g>
<g>
	<g id="_x23_c94e69ff">
		<path class="st0" d="M189.2,74c-0.5-2.8,2.1-5.4,4.8-5.3c4.1-0.5,7.9,2,10.1,5.3c3,4.6,3.5,10.2,3.5,15.5
			c-1.7,6.4,0.9,13.2-1.6,19.4c-5-6.9-8.2-15.2-15-20.7c-0.2,0.8-0.5,2.3-0.7,3C189.8,85.5,189.3,79.7,189.2,74z"/>
	</g>
	<g id="_x23_833f77ff">
		<path class="st0" d="M231.7,84.4c0.6-2.1,3.2-3.5,5.3-2.7c5.2,1.5,8.3,7,8.2,12.2c0.3,5.4-2.1,10.4-3.5,15.5
			c-2.1,6.2-4,12.5-5.8,18.8l-0.2,0.1c-0.8,0.6-1.7,0.7-2.6,0.9c-0.5-6.1-3.1-11.7-4.8-17.5c-1.2-3.7-0.1-7.6-0.9-11.3l-0.1-0.6
			C228.8,94.8,230.1,89.6,231.7,84.4z"/>
	</g>
	<g id="_x23_bd4556ff">
		<path class="st0" d="M191.1,88.1c6.8,5.5,10,13.8,15,20.7c2.5-6.2-0.1-13,1.6-19.4c1.5,13.9,0.8,27.9,1.6,41.8
			c0.2,3.9,2.9,7.3,6.1,9.5c6,3.4,12.7,5.6,18,10.3c0.7,0.6,1.4,1.2,2,1.9c6.8,6.7,11.3,15.4,13.6,24.7c0.6,5.1,0.4,10.3-0.3,15.4
			c-1.9-3.2-4.1-6.1-6.7-8.8c-2.6-2.5-3.7-6.1-6.5-8.4c-3.1-2.6-5.1-6.3-8-9.1c-2.4-2.3-4.3-5.1-5.3-8.3c-2.1-1.3-4.6-2.2-5.7-4.5
			c-2.2-4.4-6.1-7.5-8.3-11.8c-4.8-5.2-10.1-10.3-13.1-16.8c-0.7-1.4-1.6-2.7-2.5-3.9c-1.4-9.9-1.3-20.1-2-30.1
			C190.6,90.4,190.9,88.9,191.1,88.1z"/>
	</g>
	<g id="_x23_e45641ff">
		<path class="st0" d="M156.1,90.1c2.9-2.7,7.6-1.8,10.6,0.2c4.9,2.9,6.9,8.6,8.2,13.8c3.6,14.6,7.1,29.2,10.8,43.8
			c1,4.5,5,7.3,9,8.9c3.4,1.4,6.9,2.5,10.4,3.8c-0.4,0.4-1.1,1.1-1.4,1.4c4.8,3.2,5.5,9.3,8.6,13.8c4,6,6,13.4,11.5,18.3
			c0.5,1.1,0.5,2.4,0.7,3.6c0.1,2.5,2.8,3.7,4,5.7c1.7,3,3.2,6.2,5.3,8.9c-2.9,6.3-7.6,11.8-13.8,15c-2-4.2-4-8.3-5.6-12.6
			c2.8-6.8,2-14.8-2-21c-2.6-4.5-7-7.4-11.1-10.2c-1.8-3-5.9-3.3-7.3-6.5c-3.3-6.1-6.6-12.1-10-18.1c-6.2-8.7-10.2-18.7-16.1-27.6
			c-1.7-2.4-2.6-5.1-3.2-7.9c-0.8,0.5-1.6,1-2.3,1.5l-0.2,0.1c-2.4-9.3-4.9-18.6-7.3-27.9C154.1,94.6,154.2,91.8,156.1,90.1z"/>
	</g>
	<g id="_x23_783574ff">
		<path class="st0" d="M227.2,100.5c0.8,3.7-0.4,7.6,0.9,11.3c1.8,5.8,4.3,11.4,4.8,17.5c0.9-0.1,1.9-0.3,2.6-0.9
			c-1.2,7.4-6.2,15.1-2.3,22.4c-5.2-4.7-12-6.8-18-10.3C219.4,127.3,222.9,113.8,227.2,100.5z"/>
	</g>
	<g id="_x23_483675ff">
		<path class="st0" d="M255.2,121.2c1.3-2.9,5.5-3.2,7.5-1c3.6,3.3,3.4,9,1.7,13.2c-3.5,7.7-7.9,15-11.4,22.7
			c-3.1,6.7-4.4,14-4.2,21.4c-2.3-9.2-6.7-18-13.6-24.7C241.9,142.3,248.5,131.7,255.2,121.2z"/>
	</g>
	<g id="_x23_b23c41ff">
		<path class="st0" d="M192.4,121.2c0.9,1.3,1.8,2.5,2.5,3.9c3,6.5,8.2,11.6,13.1,16.8c2.2,4.4,6.1,7.5,8.3,11.8
			c1.1,2.3,3.7,3.3,5.7,4.5c1,3.2,2.9,6,5.3,8.3c3,2.8,4.9,6.5,8,9.1c2.8,2.3,4,5.9,6.5,8.4c2.6,2.6,4.8,5.6,6.7,8.8
			c-0.8,3.4-1.6,6.9-2.8,10.2l-0.2-0.3c-3.6-3.4-5.5-8.2-9.6-11.1c-2-7-5.5-13.7-10.7-18.8c-4.3-4.4-9.7-7.5-15.1-10.4
			c-0.8-1.5-1.8-3-3.3-3.8c-2.5-1.3-3.1-4.4-5.2-6.2c-3-2.6-5-6.1-7.2-9.5c-0.1,0.5-0.5,1.5-0.6,1.9
			C192.8,137.1,192.6,129.2,192.4,121.2z"/>
	</g>
	<g id="_x23_d44233ff">
		<path class="st0" d="M162.3,124.7c0.8-0.5,1.6-1,2.3-1.5c0.6,2.8,1.6,5.5,3.2,7.9c5.9,8.9,9.9,18.9,16.1,27.6
			c3.4,6,6.7,12,10,18.1c1.4,3.2,5.6,3.5,7.3,6.5c-8.2-3.8-17.1-5.4-25.9-7.3C171.7,158.8,166.4,141.9,162.3,124.7z"/>
	</g>
	<g id="_x23_fca527ff">
		<path class="st0" d="M135,143.1c2-3.4,6.3-4.1,9.9-3.4c4.3,0.8,8.4,3.1,11,6.7c5.9,7.5,7.5,17.3,11.9,25.5
			c1.5,2.8,4.6,3.9,7.6,4.3c8.7,2,17.6,3.5,25.9,7.3c4.2,2.9,8.5,5.7,11.1,10.2c4.1,6.2,4.8,14.2,2,21c-0.7,1.2-1.4,2.5-2.1,3.6
			c-1.6-4.6-7.5-4.6-10.2-8.3c-3-3.8-8.3-5.1-10.8-9.3c-2.1-3.7-6.4-4.8-9.4-7.6c-3.9-3.6-8.7-5.8-13.2-8.3c0.2-0.6,0.4-1.2,0.7-1.7
			c-1.2-0.5-2.5-0.9-3.2-2.1c-2.1-3.4-5.8-5.1-8.7-7.6c-3.7-2.4-6.6-5.9-10.6-7.9c-1,0-1.5,0.5-1.5,1.4c0.6,2.4,1.4,4.8,1.8,7.3
			l0.1,0.9c-3.4-7.5-6.5-15.3-10.6-22.5C135.1,149.7,133.5,146.2,135,143.1z"/>
	</g>
	<g id="_x23_a6312eff">
		<path class="st0" d="M194.4,143.1c2.2,3.3,4.1,6.8,7.2,9.5c2.1,1.8,2.7,4.9,5.2,6.2c1.6,0.8,2.5,2.3,3.3,3.8
			c-1.6-0.7-3.2-1.4-4.9-2c-3.5-1.2-7-2.4-10.4-3.8c-0.3-3.9-0.9-7.9-1-11.8C193.9,144.5,194.2,143.6,194.4,143.1z"/>
	</g>
	<g id="_x23_ef654cff">
		<path class="st0" d="M203.7,162c0.4-0.4,1.1-1.1,1.4-1.4c1.7,0.6,3.3,1.2,4.9,2c5.4,2.9,10.8,5.9,15.1,10.4
			c5.2,5.1,8.8,11.8,10.7,18.8c1.1,5.7,0.8,11.6-0.9,17.2c-0.4,1.2-0.8,2.3-1.2,3.4c-2.1-2.8-3.6-5.9-5.3-8.9c-1.2-2-3.9-3.1-4-5.7
			c-0.2-1.2-0.2-2.4-0.7-3.6c-5.5-4.9-7.6-12.3-11.5-18.3C209.2,171.3,208.5,165.2,203.7,162z"/>
	</g>
	<g id="_x23_f99821ff">
		<path class="st0" d="M145.3,166.8c0-1,0.5-1.5,1.5-1.4c4,2,6.9,5.5,10.6,7.9c2.9,2.6,6.6,4.3,8.7,7.6c0.7,1.2,2,1.5,3.2,2.1
			c-0.2,0.6-0.4,1.1-0.7,1.7c4.6,2.5,9.4,4.7,13.2,8.3c3,2.8,7.3,3.9,9.4,7.6c2.5,4.3,7.8,5.5,10.8,9.3c2.7,3.8,8.5,3.7,10.2,8.3
			c-1.3,1.6-2.8,3.1-4.3,4.4c-2.4,1.5-5,2.6-7.6,3.5c0.1-0.5,0.1-1.6,0.2-2.1c-2.8-2.1-5.2-4.5-7.4-7.2c-2.5,0.8-4.6-1.1-6.3-2.6
			c-2.3-2-3.7-4.9-5.8-7.1c-2.8-1.9-6.3-2.9-8.7-5.4c-5.4-5.4-11-10.5-17.1-15.1c-1,0.1-2,0.2-3,0.3c-1.7-3.9-3.9-8.4-5.1-12.8
			C146.8,171.6,145.9,169.3,145.3,166.8z"/>
	</g>
	<g id="_x23_f68a1cff">
		<path class="st0" d="M152.2,186.9c1-0.1,2-0.2,3-0.3c6,4.6,11.7,9.7,17.1,15.1c2.4,2.5,5.9,3.5,8.7,5.4c2.1,2.2,3.5,5.1,5.8,7.1
			c1.7,1.5,3.8,3.4,6.3,2.6c2.2,2.6,4.7,5.1,7.4,7.2c-0.1,0.5-0.1,1.6-0.2,2.1c-0.2,0.1-0.8,0.2-1,0.3c-9.2,1.9-17.9-2.1-25.7-6.4
			C163.4,211.5,157.2,199.1,152.2,186.9z"/>
	</g>
	<g id="_x23_a73331ff">
		<path class="st0" d="M235.9,191.6c4.1,2.9,6,7.7,9.6,11.1c-1.1,4.2-3.6,7.8-6,11.3c-1.5-1.8-3-3.5-4.4-5.3
			C236.7,203.3,237,197.4,235.9,191.6z"/>
	</g>
	<g id="_x23_96281dff">
		<path class="st0" d="M235,208.8c1.5,1.8,3,3.5,4.4,5.3c-6,7.5-14.2,13.4-23.6,15.6c1.4-0.8,2.8-1.7,4.2-2.5
			c6.2-3.2,10.9-8.7,13.8-15C234.3,211.1,234.7,210,235,208.8z"/>
	</g>
	<g id="_x23_d24032ff">
		<path class="st0" d="M214.4,214.6c1.6,4.3,3.6,8.5,5.6,12.6c-1.4,0.8-2.8,1.6-4.2,2.5l-0.6,0.3c-3.2-1.7-5.9-4-7.3-7.4
			c1.6-1.4,3-2.9,4.3-4.4C213,217.1,213.7,215.9,214.4,214.6z"/>
	</g>
	<g id="_x23_b12416ff">
		<path class="st0" d="M173.6,220.1c7.8,4.3,16.5,8.3,25.7,6.4c0,0.9-0.3,1.7-0.7,2.5c3.7,0.7,7.5,0.6,11,2.1
			C196.7,232.9,183.4,228.5,173.6,220.1z"/>
	</g>
	<g id="_x23_c53226ff">
		<path class="st0" d="M200.3,226.2c2.7-0.9,5.2-2,7.6-3.5c1.4,3.4,4.2,5.7,7.3,7.4c-1.8,0.4-3.6,0.8-5.4,1.1l-0.3-0.1
			c-3.5-1.5-7.3-1.4-11-2.1c0.4-0.8,0.7-1.6,0.7-2.5C199.5,226.4,200,226.3,200.3,226.2z"/>
	</g>
</g>
</svg>
